<svg width="1600" height="1000" viewBox="0 0 1600 1000" fill="none" xmlns="http://www.w3.org/2000/svg">
  <rect width="1600" height="1000" fill="#0A0D12"/>
  <rect x="60" y="60" width="1480" height="880" rx="36" fill="#0E131B" stroke="rgba(255,255,255,0.08)"/>
  <rect x="110" y="110" width="520" height="54" rx="27" fill="rgba(127,231,213,0.10)"/>
  <text x="140" y="147" fill="#7FE7D5" font-size="26" font-family="Inter, Arial, sans-serif" letter-spacing="4">BRAND SYSTEM</text>
  <text x="110" y="305" fill="#F3F7FB" font-size="120" font-family="Inter, Arial, sans-serif" font-weight="600" letter-spacing="-4">01</text>
  <text x="112" y="385" fill="#8D98AA" font-size="34" font-family="Inter, Arial, sans-serif">identity / layout / motion</text>
  <rect x="760" y="130" width="610" height="680" rx="28" fill="#101722" stroke="rgba(255,255,255,0.08)"/>
  <path d="M760 180H1370" stroke="rgba(255,255,255,0.1)"/>
  <path d="M760 260H1370" stroke="rgba(255,255,255,0.1)"/>
  <path d="M760 340H1370" stroke="rgba(255,255,255,0.1)"/>
  <path d="M760 420H1370" stroke="rgba(255,255,255,0.1)"/>
  <path d="M760 500H1370" stroke="rgba(255,255,255,0.1)"/>
  <path d="M760 580H1370" stroke="rgba(255,255,255,0.1)"/>
  <path d="M760 660H1370" stroke="rgba(255,255,255,0.1)"/>
  <path d="M760 740H1370" stroke="rgba(255,255,255,0.1)"/>
  <rect x="860" y="220" width="410" height="220" rx="24" fill="rgba(159,183,255,0.08)" stroke="rgba(159,183,255,0.35)"/>
  <rect x="900" y="260" width="90" height="18" rx="9" fill="rgba(255,255,255,0.18)"/>
  <rect x="900" y="294" width="260" height="18" rx="9" fill="rgba(255,255,255,0.14)"/>
  <rect x="900" y="328" width="180" height="18" rx="9" fill="rgba(255,255,255,0.14)"/>
  <rect x="900" y="362" width="220" height="18" rx="9" fill="rgba(255,255,255,0.14)"/>
  <rect x="860" y="490" width="410" height="180" rx="24" fill="rgba(127,231,213,0.06)" stroke="rgba(127,231,213,0.18)"/>
  <circle cx="1000" cy="580" r="48" stroke="rgba(255,255,255,0.2)" stroke-width="2"/>
  <circle cx="1000" cy="580" r="92" stroke="rgba(127,231,213,0.22)" stroke-width="2"/>
</svg>
